<svg id="Warstwa_2" data-name="Warstwa 2" xmlns="http://www.w3.org/2000/svg" width="122.951" height="53.13" viewBox="0 0 122.951 53.13">
  <path id="Path_320" data-name="Path 320" d="M107.406,19.471l-.161,1.855A5.711,5.711,0,0,0,102.326,19,7.33,7.33,0,0,0,98.2,20.186a7.961,7.961,0,0,0-2.822,3.3,11.05,11.05,0,0,0-1.012,4.823,9.386,9.386,0,0,0,.9,4.252,6.5,6.5,0,0,0,2.5,2.753,6.964,6.964,0,0,0,3.665.968,6.685,6.685,0,0,0,2.771-.557,5.248,5.248,0,0,0,2.023-1.561l-.161,1.855H111.9l1.3-16.559Zm-1.528,11.256a2.8,2.8,0,0,1-2.382,1.2,3.016,3.016,0,0,1-2.426-1.023,4.482,4.482,0,0,1-.861-2.95,5.373,5.373,0,0,1,.909-3.3,2.932,2.932,0,0,1,2.478-1.209,2.8,2.8,0,0,1,2.342,1.03,4.875,4.875,0,0,1,.814,3.079A5.259,5.259,0,0,1,105.877,30.727Z" transform="translate(-59.777 -12.034)" fill="#231f20"/>
  <path id="Path_321" data-name="Path 321" d="M153.754,0,151.83,23.992h5.9L159.655,0Z" transform="translate(-96.182)" fill="#231f20"/>
  <path id="Path_322" data-name="Path 322" d="M179.461,0,177.54,23.992h5.9L185.361,0Z" transform="translate(-112.469)" fill="#231f20"/>
  <path id="Path_323" data-name="Path 323" d="M220.048,22.925a7.359,7.359,0,0,0-3.126-2.888A10.438,10.438,0,0,0,212.156,19a10.141,10.141,0,0,0-4.812,1.1,7.722,7.722,0,0,0-3.211,3.13,9.749,9.749,0,0,0-1.14,4.849,8.43,8.43,0,0,0,1.1,4.332,7.268,7.268,0,0,0,3.148,2.873,10.8,10.8,0,0,0,4.823,1.012,10.171,10.171,0,0,0,4.794-1.078A7.554,7.554,0,0,0,220.04,32.1a9.944,9.944,0,0,0,1.125-4.875A8.294,8.294,0,0,0,220.048,22.925Zm-5.542,7.645a2.747,2.747,0,0,1-2.566,1.349,2.912,2.912,0,0,1-2.36-.909,4.372,4.372,0,0,1-.77-2.837,6.52,6.52,0,0,1,.8-3.39,2.8,2.8,0,0,1,2.591-1.338,2.893,2.893,0,0,1,2.331.9A4.231,4.231,0,0,1,215.3,27.1,6.759,6.759,0,0,1,214.506,30.571Z" transform="translate(-128.591 -12.032)" fill="#231f20"/>
  <path id="Path_324" data-name="Path 324" d="M277.656,20.29h5.864l-8.232,16.559h-4.867l-2.7-8.214L264,36.849h-4.922L253.47,20.29h5.9l2.9,9.485,4.3-9.485h3.848l2.837,9.65Z" transform="translate(-160.57 -12.853)" fill="#231f20"/>
  <path id="Path_325" data-name="Path 325" d="M130.22,83.9a9.4,9.4,0,0,0-3.988-3.782,13.2,13.2,0,0,0-6.08-1.319h-9.529L108.83,102h9.746a15.516,15.516,0,0,0,7.026-1.466,10.174,10.174,0,0,0,4.464-4.211,13.378,13.378,0,0,0,1.55-6.667A11.45,11.45,0,0,0,130.22,83.9Zm-6.5,11.428q-1.833,1.789-5.688,1.792h-2.7L116.4,83.683h2.9a6.482,6.482,0,0,1,4.647,1.536,5.83,5.83,0,0,1,1.613,4.435q0,3.874-1.84,5.666Z" transform="translate(-68.942 -49.912)" fill="#231f20"/>
  <path id="Path_326" data-name="Path 326" d="M190.979,103.349a7.612,7.612,0,0,0-2.023-5.637,7.419,7.419,0,0,0-5.476-2.023,8.192,8.192,0,0,0-7.352,4.4,9.705,9.705,0,0,0-1.133,4.7,8.254,8.254,0,0,0,1.1,4.321,7.382,7.382,0,0,0,3.148,2.848,10.45,10.45,0,0,0,4.71,1.012,11.5,11.5,0,0,0,3.5-.52,7.62,7.62,0,0,0,2.753-1.466l-1.169-3.878a7.972,7.972,0,0,1-4.647,1.532,3.358,3.358,0,0,1-3.782-3.621h10.262A14.549,14.549,0,0,0,190.979,103.349Zm-10.138-1.074a3.335,3.335,0,0,1,1.03-1.939,2.786,2.786,0,0,1,1.833-.608,2.4,2.4,0,0,1,1.767.652,2.665,2.665,0,0,1,.682,1.895Z" transform="translate(-110.856 -60.617)" fill="#231f20"/>
  <path id="Path_327" data-name="Path 327" d="M237.464,97.719a7.633,7.633,0,0,1,2.019,5.641,15.05,15.05,0,0,1-.1,1.664H229.122a3.353,3.353,0,0,0,3.782,3.617,7.972,7.972,0,0,0,4.662-1.532l1.173,3.878a7.825,7.825,0,0,1-2.756,1.466,11.545,11.545,0,0,1-3.5.52,10.468,10.468,0,0,1-4.71-1.012,7.418,7.418,0,0,1-3.145-2.851,8.213,8.213,0,0,1-1.1-4.318,9.731,9.731,0,0,1,1.125-4.7A8.2,8.2,0,0,1,232,95.7,7.4,7.4,0,0,1,237.464,97.719Zm-7.088,2.624a3.354,3.354,0,0,0-1.026,1.939h5.314a2.668,2.668,0,0,0-.7-1.891,2.379,2.379,0,0,0-1.759-.652A2.807,2.807,0,0,0,230.376,100.343Z" transform="translate(-141.599 -60.624)" fill="#231f20"/>
  <path id="Path_328" data-name="Path 328" d="M285.553,96.214l-.392,5.377a6.047,6.047,0,0,0-2.738-.652,4.359,4.359,0,0,0-2.8.814,3.747,3.747,0,0,0-1.173,2.738l-.645,8.316h-5.9l.946-11.8q.128-2.28.132-3.423,0-.913-.033-1.338h5.575l.1,2.346a4.856,4.856,0,0,1,2.071-2,6.278,6.278,0,0,1,2.983-.733,4,4,0,0,1,1.88.363Z" transform="translate(-172.245 -60.717)" fill="#231f20"/>
  <path id="Path_329" data-name="Path 329" d="M24.883,4.985l-.693,5.575H33.2L31,15.5H23.768l-.1,1.224L23.2,22.566c19.85,15.951,5.63,30.3,5.362,30.564,6.964-19.238-7.389-25.447-8.95-26.055h-.04l-.81.125h0l-2.665.418-2.335.367-2.932.458-1.466.231-3.068.48,1.144,3.76.506,1.668.242.792c.312.037.7.092,1.133.161.341.055.733.121,1.1.2.667.128,1.389.286,2.118.469.367.092.733.191,1.1.293h0a19.39,19.39,0,0,1,1.943.671q.367.15.682.308l.205.1c.407.2.792.4,1.155.6l.18.1c6.1,3.343,6.11,5.674,6.11,5.677a28.658,28.658,0,0,0-5.586-2.98q-.275-.114-.561-.22l-.147-.055-.165-.062c-.484-.18-.986-.367-1.514-.506-.205-.062-.418-.125-.634-.18-.18,2.474-1.653,13.246-13.664,12.887,0,0,11.9-.942,9.529-13.744h-.033l-.462-.081c-.407-.07-.8-.132-1.177-.191-3.53-.561-5.864-.7-5.864-.7L3.5,37.7l-.432-1.411-.22-.7-2.159-6.9h0l-.033-.1L.5,28.079l-.5-1.6,2.815-.594,6.348-1.327L14.184,23.5l.172-.037,1.378-.29.619-.132.773-.161h.066v-.11l.055-.689v-.143l.022-.293.1-1.195L18.978,0H38.161L34.954,4.985Z" fill="#231f20"/>
</svg>
