<svg id="fallowdeer_logo" xmlns="http://www.w3.org/2000/svg" width="168" height="72.597" viewBox="0 0 168 72.597">
  <path id="Path_320" data-name="Path 320" d="M112.185,19.645l-.22,2.534A7.8,7.8,0,0,0,105.244,19,10.016,10.016,0,0,0,99.6,20.621a10.877,10.877,0,0,0-3.856,4.507,15.1,15.1,0,0,0-1.382,6.591A12.826,12.826,0,0,0,95.6,37.528a8.874,8.874,0,0,0,3.41,3.761,9.515,9.515,0,0,0,5.008,1.322,9.135,9.135,0,0,0,3.786-.761,7.171,7.171,0,0,0,2.764-2.133l-.22,2.534h7.973L120.1,19.625ZM110.1,35.024a3.826,3.826,0,0,1-3.255,1.643,4.122,4.122,0,0,1-3.315-1.4,6.124,6.124,0,0,1-1.177-4.031,7.342,7.342,0,0,1,1.242-4.507,4.006,4.006,0,0,1,3.385-1.653,3.831,3.831,0,0,1,3.2,1.407,6.661,6.661,0,0,1,1.112,4.207A7.187,7.187,0,0,1,110.1,35.024Z" transform="translate(-47.105 -9.483)" fill="#f4f4f4"/>
  <path id="Path_321" data-name="Path 321" d="M154.459,0,151.83,32.783h8.063L162.522,0Z" transform="translate(-75.793)" fill="#f4f4f4"/>
  <path id="Path_322" data-name="Path 322" d="M180.164,0,177.54,32.783H185.6L188.227,0Z" transform="translate(-88.627)" fill="#f4f4f4"/>
  <path id="Path_323" data-name="Path 323" d="M226.3,24.366a10.056,10.056,0,0,0-4.272-3.946A14.263,14.263,0,0,0,215.515,19a13.857,13.857,0,0,0-6.576,1.5,10.552,10.552,0,0,0-4.387,4.277,13.322,13.322,0,0,0-1.558,6.626,11.519,11.519,0,0,0,1.5,5.92,9.931,9.931,0,0,0,4.3,3.926,14.764,14.764,0,0,0,6.591,1.382,13.9,13.9,0,0,0,6.551-1.472,10.322,10.322,0,0,0,4.347-4.257,13.587,13.587,0,0,0,1.538-6.661A11.334,11.334,0,0,0,226.3,24.366Zm-7.572,10.447a3.754,3.754,0,0,1-3.506,1.843,3.979,3.979,0,0,1-3.225-1.242,5.974,5.974,0,0,1-1.052-3.876,8.909,8.909,0,0,1,1.092-4.632,3.829,3.829,0,0,1,3.541-1.828A3.953,3.953,0,0,1,218.76,26.3a5.781,5.781,0,0,1,1.047,3.761A9.234,9.234,0,0,1,218.725,34.812Z" transform="translate(-101.332 -9.482)" fill="#f4f4f4"/>
  <path id="Path_324" data-name="Path 324" d="M286.518,20.29h8.013L283.283,42.916h-6.651l-3.7-11.223-5.078,11.223h-6.726L253.47,20.29h8.063L265.5,33.251l5.879-12.961h5.258l3.876,13.186Z" transform="translate(-126.531 -10.129)" fill="#f4f4f4"/>
  <path id="Path_325" data-name="Path 325" d="M138.057,85.766a12.846,12.846,0,0,0-5.449-5.168,18.029,18.029,0,0,0-8.308-1.8H111.279l-2.449,31.716h13.316a21.2,21.2,0,0,0,9.6-2,13.9,13.9,0,0,0,6.1-5.754,18.28,18.28,0,0,0,2.118-9.11A15.645,15.645,0,0,0,138.057,85.766Zm-8.884,15.615q-2.5,2.444-7.772,2.449h-3.7l1.467-18.354h3.961a8.857,8.857,0,0,1,6.35,2.1,7.965,7.965,0,0,1,2.2,6.06q0,5.293-2.514,7.742Z" transform="translate(-54.327 -39.331)" fill="#f4f4f4"/>
  <path id="Path_326" data-name="Path 326" d="M196.837,106.156q0-4.943-2.764-7.7a10.137,10.137,0,0,0-7.482-2.764,11.193,11.193,0,0,0-10.046,6.01A13.262,13.262,0,0,0,175,108.114a11.278,11.278,0,0,0,1.5,5.9,10.086,10.086,0,0,0,4.3,3.891,14.278,14.278,0,0,0,6.435,1.382,15.716,15.716,0,0,0,4.788-.711,10.412,10.412,0,0,0,3.761-2l-1.6-5.3a10.893,10.893,0,0,1-6.35,2.093,4.588,4.588,0,0,1-5.168-4.948h14.023A19.876,19.876,0,0,0,196.837,106.156Zm-13.852-1.467a4.558,4.558,0,0,1,1.407-2.649,3.806,3.806,0,0,1,2.5-.831,3.275,3.275,0,0,1,2.414.891,3.641,3.641,0,0,1,.931,2.589Z" transform="translate(-87.356 -47.767)" fill="#f4f4f4"/>
  <path id="Path_327" data-name="Path 327" d="M242.572,98.459q2.759,2.764,2.759,7.707a20.566,20.566,0,0,1-.135,2.274H231.174a4.581,4.581,0,0,0,5.168,4.943,10.892,10.892,0,0,0,6.37-2.093l1.6,5.3a10.692,10.692,0,0,1-3.766,2,15.775,15.775,0,0,1-4.788.711,14.3,14.3,0,0,1-6.435-1.382,10.136,10.136,0,0,1-4.3-3.9,11.223,11.223,0,0,1-1.5-5.9,13.3,13.3,0,0,1,1.537-6.415A11.2,11.2,0,0,1,235.11,95.7,10.109,10.109,0,0,1,242.572,98.459Zm-9.686,3.586a4.582,4.582,0,0,0-1.4,2.649h7.262a3.646,3.646,0,0,0-.962-2.584,3.25,3.25,0,0,0-2.4-.891A3.836,3.836,0,0,0,232.886,102.045Z" transform="translate(-111.582 -47.772)" fill="#f4f4f4"/>
  <path id="Path_328" data-name="Path 328" d="M290.555,96.349l-.536,7.347a8.263,8.263,0,0,0-3.741-.891,5.956,5.956,0,0,0-3.831,1.112,5.12,5.12,0,0,0-1.6,3.741l-.881,11.363H271.9l1.292-16.126q.175-3.115.18-4.678,0-1.247-.045-1.828h7.617l.135,3.205a6.636,6.636,0,0,1,2.83-2.739,8.579,8.579,0,0,1,4.077-1,5.469,5.469,0,0,1,2.569.5Z" transform="translate(-135.731 -47.846)" fill="#f4f4f4"/>
  <path id="Path_329" data-name="Path 329" d="M34,6.811l-.947,7.617H45.368l-3,6.756H32.477l-.135,1.673L31.7,30.835c27.124,21.8,7.692,41.4,7.327,41.762,9.515-26.287-10.1-34.771-12.23-35.6h-.055l-1.107.17h0L22,37.736l-3.19.5-4.006.626-2,.316L8.6,39.834l1.563,5.138.691,2.279.331,1.082c.426.05.952.125,1.547.22.466.075,1,.165,1.5.27.911.175,1.9.391,2.895.641.5.125,1,.26,1.5.4h0a26.5,26.5,0,0,1,2.654.916q.5.205.931.421l.28.14c.556.275,1.082.551,1.578.821l.245.135c8.338,4.567,8.348,7.752,8.348,7.757a39.158,39.158,0,0,0-7.632-4.072q-.376-.155-.766-.3l-.2-.075-.225-.085c-.661-.245-1.347-.5-2.068-.691-.28-.085-.571-.17-.866-.245-.245,3.38-2.259,18.1-18.67,17.608,0,0,16.261-1.287,13.021-18.78h-.045l-.631-.11c-.556-.1-1.092-.18-1.608-.26-4.823-.766-8.013-.962-8.013-.962l-.18-.576L4.2,49.58l-.3-.957L.947,39.2h0L.9,39.063l-.215-.7L0,36.178l3.846-.811,8.674-1.813,6.861-1.442.235-.05,1.883-.4.846-.18,1.057-.22h.09v-.15l.075-.942v-.2l.03-.4.13-1.633L25.932,0H52.144L47.762,6.811Z" fill="#f4f4f4"/>
</svg>
