<svg xmlns="http://www.w3.org/2000/svg" width="434.909" height="605.781" viewBox="0 0 434.909 605.781">
  <g id="sygnet" transform="translate(217.455 302.891)">
    <path id="sygnet-2" data-name="sygnet" d="M283.673,56.818l-7.938,63.5H378.509l-25.067,56.4h-82.3l-1.253,13.787-5.431,66.845c226.437,181.734,64.338,345.5,61,348.429,79.378-219.335-84.392-289.939-101.938-297.042h-.418l-9.191,1.253h0l-30.5,4.6-26.738,4.178L123.245,324.2,106.534,326.7,71.44,332.135l12.951,43.031,5.849,19.218,2.924,9.191,12.951,1.671,12.533,2.089,24.231,5.431,12.533,3.342h0a221,221,0,0,1,22.142,7.52l7.938,3.342L188,428.225l12.951,6.684,2.089,1.253c69.351,38.018,69.769,64.756,69.769,64.756a326.7,326.7,0,0,0-63.92-33.84l-6.267-2.507-1.671-.836-1.671-.836-17.129-5.849-7.1-2.089c-2.089,28.409-18.8,150.819-155.832,147.059,0,0,135.779-10.862,108.623-156.668h-.418l-5.431-.836-13.369-2.089c-40.525-6.267-67.263-7.938-67.263-7.938l-1.671-4.6-4.6-16.293-2.507-7.938L7.938,327.122h0v-1.253L6.267,320.02,0,301.637l32.169-6.684,72.276-15.04L161.681,267.8h2.089l15.876-3.342,7.1-1.671,8.773-1.671h.836V246.49L197.61,232.7,216.41,0h218.5L398.562,56.818Z" transform="translate(-217.455 -302.891)" fill="#1a1818"/>
  </g>
</svg>
