<svg xmlns="http://www.w3.org/2000/svg" width="30.181" height="30.173" viewBox="0 0 30.181 30.173">
  <g id="Group_159" data-name="Group 159" transform="translate(-1118.819 -2965.148)">
    <path id="Path_106" data-name="Path 106" d="M30.214,15.077v7.565A7.479,7.479,0,0,1,24.238,30a7.255,7.255,0,0,1-1.477.149q-7.634.016-15.273.005a7.439,7.439,0,0,1-7.193-5.6A8.415,8.415,0,0,1,.056,22.62C.024,20.639.04,18.652.045,16.671c0-1.392.016-2.778.016-4.17,0-1.806-.048-3.612.005-5.419A7.383,7.383,0,0,1,5.607.26,9.409,9.409,0,0,1,7.679.005c5-.021,10-.016,15.008-.016A7.5,7.5,0,0,1,30.2,7.379c.021,2.539.011,5.084.011,7.623,0,.021,0,.048,0,.074Zm-15.1,12.962h7.517A10,10,0,0,0,23.9,27.9a5.349,5.349,0,0,0,4.2-5.328V14.4c0-2.284.005-4.569,0-6.853a5.381,5.381,0,0,0-5.424-5.429q-7.538-.008-15.082.005A5.406,5.406,0,0,0,2.165,7.6v15A5.372,5.372,0,0,0,7.6,28.039C10.107,28.045,12.609,28.039,15.116,28.039Z" transform="translate(1118.783 2965.159)" fill="#f4f4f4"/>
    <path id="Path_107" data-name="Path 107" d="M133.3,141.211a8.009,8.009,0,1,1,8.006,8.006A8.026,8.026,0,0,1,133.3,141.211Zm8.011,5.892a5.886,5.886,0,1,0-5.86-5.328A5.87,5.87,0,0,0,141.311,147.1Z" transform="translate(992.599 2839.025)" fill="#f4f4f4"/>
    <path id="Path_108" data-name="Path 108" d="M412.138,92.188A1.846,1.846,0,1,1,414,90.361,1.866,1.866,0,0,1,412.138,92.188Z" transform="translate(730.314 2881.354)" fill="#f4f4f4"/>
  </g>
</svg>
