<svg data-name="Warstwa 2" xmlns="http://www.w3.org/2000/svg" width="122.951" height="53.13"><path data-name="Path 320" d="M47.629 7.437l-.161 1.855a5.711 5.711 0 00-4.919-2.326 7.33 7.33 0 00-4.126 1.186 7.961 7.961 0 00-2.822 3.3 11.05 11.05 0 00-1.012 4.823 9.386 9.386 0 00.9 4.252 6.5 6.5 0 002.5 2.753 6.964 6.964 0 003.665.968 6.685 6.685 0 002.771-.557 5.248 5.248 0 002.023-1.561l-.161 1.855h5.836l1.3-16.559zm-1.528 11.256a2.8 2.8 0 01-2.382 1.2 3.016 3.016 0 01-2.426-1.023 4.482 4.482 0 01-.861-2.95 5.373 5.373 0 01.909-3.3 2.932 2.932 0 012.478-1.209 2.8 2.8 0 012.342 1.03 4.875 4.875 0 01.814 3.079 5.259 5.259 0 01-.875 3.173z" fill="#231f20"/><path data-name="Path 321" d="M57.572 0l-1.924 23.992h5.9L63.473 0z" fill="#231f20"/><path data-name="Path 322" d="M66.992 0l-1.921 23.992h5.9L72.892 0z" fill="#231f20"/><path data-name="Path 323" d="M91.457 10.893a7.359 7.359 0 00-3.126-2.888 10.438 10.438 0 00-4.766-1.037 10.141 10.141 0 00-4.812 1.1 7.722 7.722 0 00-3.211 3.13 9.749 9.749 0 00-1.14 4.849 8.43 8.43 0 001.1 4.332 7.268 7.268 0 003.148 2.873 10.8 10.8 0 004.823 1.012 10.171 10.171 0 004.794-1.078 7.554 7.554 0 003.182-3.118 9.944 9.944 0 001.125-4.875 8.294 8.294 0 00-1.117-4.3zm-5.542 7.645a2.747 2.747 0 01-2.566 1.349 2.912 2.912 0 01-2.36-.909 4.372 4.372 0 01-.77-2.837 6.52 6.52 0 01.8-3.39 2.8 2.8 0 012.591-1.338 2.893 2.893 0 012.331.9 4.231 4.231 0 01.768 2.755 6.759 6.759 0 01-.794 3.471z" fill="#231f20"/><path data-name="Path 324" d="M117.086 7.437h5.864l-8.232 16.559h-4.867l-2.7-8.214-3.721 8.214h-4.922L92.9 7.437h5.9l2.9 9.485 4.3-9.485h3.848l2.837 9.65z" fill="#231f20"/><path data-name="Path 325" d="M61.278 33.988a9.4 9.4 0 00-3.988-3.782 13.2 13.2 0 00-6.08-1.319h-9.529l-1.793 23.201h9.746a15.516 15.516 0 007.026-1.466 10.174 10.174 0 004.464-4.211 13.378 13.378 0 001.55-6.667 11.45 11.45 0 00-1.396-5.756zm-6.5 11.428q-1.833 1.789-5.688 1.792h-2.7l1.068-13.437h2.9a6.482 6.482 0 014.647 1.536 5.83 5.83 0 011.613 4.435q0 3.874-1.84 5.666z" fill="#231f20"/><path data-name="Path 326" d="M80.123 42.732a7.612 7.612 0 00-2.023-5.637 7.419 7.419 0 00-5.476-2.023 8.192 8.192 0 00-7.352 4.4 9.705 9.705 0 00-1.133 4.7 8.254 8.254 0 001.1 4.321 7.382 7.382 0 003.148 2.848 10.45 10.45 0 004.71 1.012 11.5 11.5 0 003.5-.52 7.62 7.62 0 002.753-1.466l-1.169-3.878a7.972 7.972 0 01-4.647 1.532 3.358 3.358 0 01-3.782-3.621h10.262a14.549 14.549 0 00.109-1.668zm-10.138-1.074a3.335 3.335 0 011.03-1.939 2.786 2.786 0 011.833-.608 2.4 2.4 0 011.767.652 2.665 2.665 0 01.682 1.895z" fill="#231f20"/><path data-name="Path 327" d="M95.865 37.095a7.633 7.633 0 012.019 5.641 15.05 15.05 0 01-.1 1.664H87.523a3.353 3.353 0 003.782 3.617 7.972 7.972 0 004.662-1.532l1.173 3.878a7.825 7.825 0 01-2.756 1.466 11.545 11.545 0 01-3.5.52 10.468 10.468 0 01-4.71-1.012 7.418 7.418 0 01-3.145-2.851 8.213 8.213 0 01-1.1-4.318 9.731 9.731 0 011.125-4.7 8.2 8.2 0 017.347-4.392 7.4 7.4 0 015.464 2.019zm-7.088 2.624a3.354 3.354 0 00-1.026 1.939h5.314a2.668 2.668 0 00-.7-1.891 2.379 2.379 0 00-1.759-.652 2.807 2.807 0 00-1.829.604z" fill="#231f20"/><path data-name="Path 328" d="M113.308 35.497l-.392 5.377a6.047 6.047 0 00-2.738-.652 4.359 4.359 0 00-2.8.814 3.747 3.747 0 00-1.173 2.738l-.645 8.316h-5.9l.946-11.8q.128-2.28.132-3.423 0-.913-.033-1.338h5.575l.1 2.346a4.856 4.856 0 012.071-2 6.278 6.278 0 012.983-.733 4 4 0 011.88.363z" fill="#231f20"/><path data-name="Path 329" d="M24.883 4.985l-.693 5.575h9.01L31 15.5h-7.232l-.1 1.224-.468 5.842c19.85 15.951 5.63 30.3 5.362 30.564 6.964-19.238-7.389-25.447-8.95-26.055h-.04l-.81.125-2.665.418-2.335.367-2.932.458-1.466.231-3.068.48 1.144 3.76.506 1.668.242.792a29.585 29.585 0 012.233.361 38.912 38.912 0 013.218.762 19.39 19.39 0 011.943.671q.367.15.682.308l.205.1c.407.2.792.4 1.155.6l.18.1c6.1 3.343 6.11 5.674 6.11 5.677a28.658 28.658 0 00-5.586-2.98q-.275-.114-.561-.22l-.147-.055-.165-.062c-.484-.18-.986-.367-1.514-.506a14.868 14.868 0 00-.634-.18c-.18 2.474-1.653 13.246-13.664 12.887 0 0 11.9-.942 9.529-13.744h-.033l-.462-.081c-.407-.07-.8-.132-1.177-.191-3.53-.561-5.864-.7-5.864-.7L3.5 37.7l-.432-1.411-.22-.7-2.159-6.9-.033-.1-.156-.51-.5-1.6 2.815-.594 6.348-1.327 5.021-1.058.172-.037 1.378-.29.619-.132.773-.161h.066v-.11l.055-.689v-.143l.022-.293.1-1.195L18.978 0h19.183l-3.207 4.985z" fill="#231f20"/></svg>