<svg xmlns="http://www.w3.org/2000/svg" width="168" height="72.597"><path data-name="Path 320" d="M65.08 10.162l-.22 2.534a7.8 7.8 0 00-6.721-3.179 10.016 10.016 0 00-5.644 1.621 10.877 10.877 0 00-3.856 4.507 15.1 15.1 0 00-1.382 6.591 12.826 12.826 0 001.238 5.809 8.874 8.874 0 003.41 3.761 9.515 9.515 0 005.008 1.322 9.135 9.135 0 003.786-.761 7.171 7.171 0 002.764-2.133l-.22 2.534h7.973l1.779-22.626zm-2.085 15.379a3.826 3.826 0 01-3.255 1.643 4.122 4.122 0 01-3.315-1.4 6.124 6.124 0 01-1.177-4.031 7.342 7.342 0 011.242-4.507 4.006 4.006 0 013.385-1.653 3.831 3.831 0 013.2 1.407 6.661 6.661 0 011.112 4.207 7.187 7.187 0 01-1.192 4.334z" fill="#f4f4f4"/><path data-name="Path 321" d="M78.666 0l-2.629 32.783H84.1L86.729 0z" fill="#f4f4f4"/><path data-name="Path 322" d="M91.537 0l-2.624 32.783h8.06L99.6 0z" fill="#f4f4f4"/><path data-name="Path 323" d="M124.968 14.884a10.056 10.056 0 00-4.272-3.946 14.263 14.263 0 00-6.513-1.42 13.857 13.857 0 00-6.576 1.5 10.552 10.552 0 00-4.387 4.277 13.322 13.322 0 00-1.558 6.626 11.519 11.519 0 001.5 5.92 9.931 9.931 0 004.3 3.926 14.764 14.764 0 006.591 1.382 13.9 13.9 0 006.551-1.472 10.322 10.322 0 004.347-4.257 13.587 13.587 0 001.538-6.661 11.334 11.334 0 00-1.521-5.875zm-7.572 10.447a3.754 3.754 0 01-3.506 1.843 3.979 3.979 0 01-3.225-1.242 5.974 5.974 0 01-1.052-3.876 8.909 8.909 0 011.092-4.632 3.829 3.829 0 013.541-1.828 3.953 3.953 0 013.182 1.222 5.781 5.781 0 011.047 3.761 9.234 9.234 0 01-1.082 4.751z" fill="#f4f4f4"/><path data-name="Path 324" d="M159.987 10.161H168l-11.248 22.626h-6.651l-3.7-11.223-5.078 11.223h-6.726l-7.658-22.626h8.063l3.967 12.961 5.879-12.961h5.258l3.876 13.186z" fill="#f4f4f4"/><path data-name="Path 325" d="M83.73 46.435a12.846 12.846 0 00-5.449-5.168 18.029 18.029 0 00-8.308-1.8H56.952l-2.449 31.716h13.316a21.2 21.2 0 009.6-2 13.9 13.9 0 006.1-5.754 18.28 18.28 0 002.118-9.11 15.645 15.645 0 00-1.907-7.884zM74.846 62.05q-2.5 2.444-7.772 2.449h-3.7l1.467-18.354h3.961a8.857 8.857 0 016.35 2.1 7.965 7.965 0 012.2 6.06q0 5.293-2.514 7.742z" fill="#f4f4f4"/><path data-name="Path 326" d="M109.481 58.389q0-4.943-2.764-7.7a10.137 10.137 0 00-7.482-2.764 11.193 11.193 0 00-10.046 6.01 13.262 13.262 0 00-1.545 6.412 11.278 11.278 0 001.5 5.9 10.086 10.086 0 004.3 3.891 14.278 14.278 0 006.435 1.382 15.716 15.716 0 004.788-.711 10.412 10.412 0 003.761-2l-1.6-5.3a10.893 10.893 0 01-6.35 2.093 4.588 4.588 0 01-5.168-4.948h14.023a19.876 19.876 0 00.148-2.265zm-13.852-1.467a4.558 4.558 0 011.407-2.649 3.806 3.806 0 012.5-.831 3.275 3.275 0 012.414.891 3.641 3.641 0 01.931 2.589z" fill="#f4f4f4"/><path data-name="Path 327" d="M130.99 50.687q2.759 2.764 2.759 7.707a20.566 20.566 0 01-.135 2.274h-14.022a4.581 4.581 0 005.168 4.943 10.892 10.892 0 006.37-2.093l1.6 5.3a10.692 10.692 0 01-3.766 2 15.775 15.775 0 01-4.788.711 14.3 14.3 0 01-6.435-1.382 10.136 10.136 0 01-4.3-3.9 11.223 11.223 0 01-1.5-5.9 13.3 13.3 0 011.537-6.415 11.2 11.2 0 0110.05-6.004 10.109 10.109 0 017.462 2.759zm-9.686 3.586a4.582 4.582 0 00-1.4 2.649h7.262a3.646 3.646 0 00-.962-2.584 3.25 3.25 0 00-2.4-.891 3.836 3.836 0 00-2.5.826z" fill="#f4f4f4"/><path data-name="Path 328" d="M154.824 48.503l-.536 7.347a8.263 8.263 0 00-3.741-.891 5.956 5.956 0 00-3.831 1.112 5.12 5.12 0 00-1.6 3.741l-.881 11.363h-8.066l1.292-16.126q.175-3.115.18-4.678 0-1.247-.045-1.828h7.617l.135 3.205a6.636 6.636 0 012.83-2.739 8.579 8.579 0 014.077-1 5.469 5.469 0 012.569.5z" fill="#f4f4f4"/><path data-name="Path 329" d="M34 6.811l-.947 7.617h12.315l-3 6.756h-9.891l-.135 1.673-.642 7.978c27.124 21.8 7.692 41.4 7.327 41.762 9.515-26.287-10.1-34.771-12.23-35.6h-.055l-1.107.17-3.635.569-3.19.5-4.006.626-2 .316-4.204.656 1.563 5.138.691 2.279.331 1.082c.426.05.952.125 1.547.22.466.075 1 .165 1.5.27a53.197 53.197 0 014.395 1.041 26.5 26.5 0 012.654.916q.5.205.931.421l.28.14a45.33 45.33 0 011.578.821l.245.135c8.338 4.567 8.348 7.752 8.348 7.757a39.158 39.158 0 00-7.632-4.072q-.376-.155-.766-.3l-.2-.075-.225-.085c-.661-.245-1.347-.5-2.068-.691a19.7 19.7 0 00-.866-.245c-.245 3.38-2.259 18.1-18.67 17.608 0 0 16.261-1.287 13.021-18.78h-.045l-.631-.11c-.556-.1-1.092-.18-1.608-.26-4.823-.766-8.013-.962-8.013-.962l-.18-.576-.58-1.926-.3-.957L.947 39.2.9 39.063l-.215-.7L0 36.178l3.846-.811 8.674-1.813 6.861-1.442.235-.05 1.883-.4.846-.18 1.057-.22h.09v-.15l.075-.942v-.2l.03-.4.13-1.633L25.932 0h26.212l-4.382 6.811z" fill="#f4f4f4"/></svg>