<svg xmlns="http://www.w3.org/2000/svg" width="434.909" height="605.781"><path data-name="sygnet" d="M283.673 56.818l-7.938 63.5h102.774l-25.067 56.4h-82.3l-1.253 13.787-5.431 66.845c226.437 181.734 64.338 345.5 61 348.429 79.378-219.335-84.392-289.939-101.938-297.042h-.418l-9.191 1.253-30.5 4.6-26.738 4.178-33.428 5.432-16.711 2.5-35.094 5.435 12.951 43.031 5.849 19.218 2.924 9.191 12.951 1.671 12.533 2.089 24.231 5.431 12.533 3.342a221 221 0 0122.142 7.52l7.938 3.342 2.508 1.255 12.951 6.684 2.089 1.253c69.351 38.018 69.769 64.756 69.769 64.756a326.7 326.7 0 00-63.92-33.84l-6.267-2.507-1.671-.836-1.671-.836-17.129-5.849-7.1-2.089c-2.089 28.409-18.8 150.819-155.832 147.059 0 0 135.779-10.862 108.623-156.668h-.418l-5.431-.836-13.369-2.089c-40.525-6.267-67.263-7.938-67.263-7.938l-1.671-4.6-4.6-16.293-2.507-7.938-24.645-78.536v-1.253l-1.671-5.849L0 301.637l32.169-6.684 72.276-15.04 57.236-12.113h2.089l15.876-3.342 7.1-1.671 8.773-1.671h.836V246.49l1.255-13.79L216.41 0h218.5l-36.348 56.818z" fill="#1a1818"/></svg>